<svg width="67" height="34" viewBox="0 0 67 34" fill="none" xmlns="http://www.w3.org/2000/svg">
<path d="M43.8095 2.06071L49.9967 8.2479L63.5878 8.22727C63.9729 8.2257 64.3544 8.30037 64.7104 8.44698C65.0664 8.5936 65.3899 8.80926 65.6622 9.08152C65.9344 9.35378 66.1501 9.67725 66.2967 10.0333C66.4433 10.3893 66.518 10.7708 66.5164 11.1559L66.4958 21.8185C66.4935 22.589 66.1864 23.3273 65.6416 23.8722C65.0967 24.417 64.3584 24.7241 63.5878 24.7264L54.1214 24.7471L37.6223 8.2479L33.4975 12.3727C32.9505 12.9197 32.2086 13.227 31.4351 13.227C30.6616 13.227 29.9197 12.9197 29.3727 12.3727C28.8257 11.8257 28.5184 11.0838 28.5184 10.3103C28.5184 9.53674 28.8257 8.79488 29.3727 8.2479L35.5599 2.06071C36.6539 0.966751 38.1376 0.352169 39.6847 0.352169C41.2318 0.352168 42.7155 0.96675 43.8095 2.06071ZM21.1231 -0.00168057L12.8735 8.2479L3.42778 8.2479C2.65724 8.25019 1.91891 8.55731 1.37406 9.10216C0.829202 9.64702 0.522093 10.3853 0.519801 11.1559L0.499175 21.8185C0.497598 22.2035 0.57227 22.585 0.718887 22.941C0.865503 23.2971 1.08116 23.6206 1.35342 23.8928C1.62568 24.1651 1.94916 24.3807 2.30518 24.5273C2.66121 24.674 3.04274 24.7486 3.42777 24.7471L21.1231 24.7471L29.3727 32.9966C29.9197 33.5436 30.6615 33.8509 31.4351 33.8509C32.2086 33.8509 32.9505 33.5436 33.4975 32.9966L35.5599 30.9342L37.6223 32.9966C38.1693 33.5436 38.9111 33.8509 39.6847 33.8509C40.4582 33.8509 41.2001 33.5436 41.7471 32.9966L43.8095 30.9342L45.8719 32.9966C46.4188 33.5436 47.1607 33.8509 47.9343 33.8509C48.7078 33.8509 49.4497 33.5436 49.9966 32.9966L52.059 30.9342L37.6223 16.4975L35.5599 18.5599C34.4659 19.6538 32.9822 20.2684 31.4351 20.2684C29.888 20.2684 28.4043 19.6538 27.3103 18.5599L23.1855 14.4351C22.0916 13.3411 21.477 11.8574 21.477 10.3103C21.477 8.7632 22.0916 7.27947 23.1855 6.1855L29.3727 -0.00168191L21.1231 -0.00168057Z" fill="#212529"/>
</svg>
