<svg width="58" height="58" viewBox="0 0 58 58" fill="none" xmlns="http://www.w3.org/2000/svg">
<path d="M55.25 55.25L37.75 37.75M2.75 23.1667C2.75 25.8478 3.27809 28.5027 4.30413 30.9798C5.33016 33.4569 6.83404 35.7076 8.7299 37.6034C10.6258 39.4993 12.8765 41.0032 15.3535 42.0292C17.8306 43.0552 20.4855 43.5833 23.1667 43.5833C25.8478 43.5833 28.5027 43.0552 30.9798 42.0292C33.4569 41.0032 35.7076 39.4993 37.6034 37.6034C39.4993 35.7076 41.0032 33.4569 42.0292 30.9798C43.0552 28.5027 43.5833 25.8478 43.5833 23.1667C43.5833 20.4855 43.0552 17.8306 42.0292 15.3535C41.0032 12.8765 39.4993 10.6258 37.6034 8.7299C35.7076 6.83404 33.4569 5.33016 30.9798 4.30413C28.5027 3.27809 25.8478 2.75 23.1667 2.75C20.4855 2.75 17.8306 3.27809 15.3535 4.30413C12.8765 5.33016 10.6258 6.83404 8.7299 8.7299C6.83404 10.6258 5.33016 12.8765 4.30413 15.3535C3.27809 17.8306 2.75 20.4855 2.75 23.1667Z" stroke="#212529" stroke-width="5" stroke-linecap="round" stroke-linejoin="round"/>
</svg>
