<svg width="50" height="50" viewBox="0 0 50 50" fill="none" xmlns="http://www.w3.org/2000/svg">
<path d="M35.4163 16.6666V10.4166C35.4163 9.86411 35.1968 9.33421 34.8061 8.94351C34.4154 8.55281 33.8855 8.33331 33.333 8.33331H12.4997C11.3946 8.33331 10.3348 8.7723 9.5534 9.5537C8.77199 10.3351 8.33301 11.3949 8.33301 12.5M8.33301 12.5C8.33301 13.605 8.77199 14.6649 9.5534 15.4463C10.3348 16.2277 11.3946 16.6666 12.4997 16.6666H37.4997C38.0522 16.6666 38.5821 16.8861 38.9728 17.2768C39.3635 17.6675 39.583 18.1974 39.583 18.75V25M8.33301 12.5V37.5C8.33301 38.605 8.77199 39.6649 9.5534 40.4463C10.3348 41.2277 11.3946 41.6666 12.4997 41.6666H37.4997C38.0522 41.6666 38.5821 41.4472 38.9728 41.0565C39.3635 40.6658 39.583 40.1358 39.583 39.5833V33.3333" stroke="white" stroke-width="4.16667" stroke-linecap="round" stroke-linejoin="round"/>
<path d="M41.666 25V33.3333H33.3327C32.2276 33.3333 31.1678 32.8943 30.3864 32.1129C29.605 31.3315 29.166 30.2717 29.166 29.1667C29.166 28.0616 29.605 27.0018 30.3864 26.2204C31.1678 25.439 32.2276 25 33.3327 25H41.666Z" stroke="white" stroke-width="4.16667" stroke-linecap="round" stroke-linejoin="round"/>
</svg>
