<svg width="60" height="60" viewBox="0 0 60 60" fill="none" xmlns="http://www.w3.org/2000/svg">
<path d="M58.3209 54.1792L54.1792 58.3208C53.6327 58.8641 52.8935 59.169 52.1229 59.169C51.3524 59.169 50.6132 58.8641 50.0667 58.3208L15.4167 23.7292C14.4683 24.0043 13.4874 24.1514 12.5 24.1667C10.643 24.1653 8.81311 23.7207 7.1625 22.8698C5.5119 22.0189 4.08826 20.7862 3.00996 19.2743C1.93167 17.7624 1.22986 16.015 0.962886 14.1772C0.695915 12.3395 0.871497 10.4646 1.47503 8.70834L8.88337 16.1167L10.4292 14.5708L14.5709 10.4292L16.1167 8.88334L8.70837 1.475C10.4646 0.871466 12.3395 0.695884 14.1773 0.962855C16.015 1.22982 17.7625 1.93163 19.2744 3.00993C20.7863 4.08823 22.0189 5.51187 22.8698 7.16247C23.7208 8.81308 24.1654 10.643 24.1667 12.5C24.1514 13.4874 24.0043 14.4683 23.7292 15.4167L58.3209 50.0667C58.8641 50.6131 59.169 51.3524 59.169 52.1229C59.169 52.8935 58.8641 53.6327 58.3209 54.1792ZM1.6792 50.0667C1.13597 50.6131 0.831055 51.3524 0.831055 52.1229C0.831055 52.8935 1.13597 53.6327 1.6792 54.1792L5.82087 58.3208C6.36734 58.8641 7.10657 59.169 7.87712 59.169C8.64766 59.169 9.38689 58.8641 9.93337 58.3208L25.8875 42.3958L17.6334 34.1417M53.3334 0.833336L41.6667 6.66667V12.5L35.3375 18.8292L41.1709 24.6625L47.5 18.3333H53.3334L59.1667 6.66667L53.3334 0.833336Z" fill="#212529"/>
</svg>
